<?xml version="1.0" standalone="no"?>
<!DOCTYPE svg PUBLIC "-//W3C//DTD SVG 20010904//EN"
 "http://www.w3.org/TR/2001/REC-SVG-20010904/DTD/svg10.dtd">
<svg version="1.0" xmlns="http://www.w3.org/2000/svg"
 width="700.000000pt" height="700.000000pt" viewBox="0 0 700.000000 700.000000"
 preserveAspectRatio="xMidYMid meet">
<metadata>
Created by potrace 1.14, written by Peter Selinger 2001-2017
</metadata>
<g transform="translate(0.000000,700.000000) scale(0.100000,-0.100000)"
fill="#000000" stroke="none">
<path d="M272 6711 c151 -209 424 -570 431 -571 4 0 7 4 7 8 0 5 23 50 52 101
31 56 47 95 41 99 -15 11 -404 300 -490 365 -41 31 -77 57 -80 57 -2 0 15 -27
39 -59z"/>
<path d="M803 6298 c-9 -18 -23 -42 -30 -53 -15 -25 -51 -97 -55 -112 -4 -13
21 -46 483 -670 l68 -91 180 180 181 180 -193 140 c-105 78 -208 153 -227 168
-19 15 -57 43 -85 64 -27 20 -57 43 -65 49 -8 7 -31 23 -50 37 -19 14 -44 32
-55 42 -11 9 -46 35 -77 58 l-57 41 -18 -33z"/>
<path d="M2612 6063 c-24 -64 -58 -204 -67 -273 -3 -25 -8 -52 -10 -60 -4 -15
-11 -80 -21 -185 -3 -33 -7 -153 -8 -267 -1 -114 -6 -211 -11 -215 -4 -5 -5
-3 -1 4 7 12 -131 119 -609 473 -99 73 -194 144 -211 157 l-32 24 -181 -181
-181 -180 57 -78 c32 -42 63 -82 68 -88 6 -6 35 -46 65 -88 138 -192 322 -431
331 -429 5 2 9 -3 9 -11 0 -8 4 -16 8 -18 12 -5 302 -398 302 -410 0 -9 -88
-111 -170 -198 -8 -9 -58 -63 -110 -120 -179 -196 -471 -497 -910 -940 -588
-593 -671 -681 -689 -721 -17 -37 -20 -119 -7 -174 17 -76 94 -249 146 -330
11 -16 23 -37 26 -45 32 -71 269 -380 292 -381 68 -3 213 -71 366 -173 145
-96 173 -92 432 63 82 49 183 102 224 119 136 56 356 119 473 136 20 3 54 9
75 12 67 10 246 44 287 55 22 6 45 12 50 13 136 30 427 156 545 236 178 121
306 297 342 471 16 77 24 55 53 -136 8 -54 8 -244 0 -330 -29 -307 -167 -706
-366 -1058 -74 -131 -270 -424 -316 -474 l-40 -43 36 -1 c199 -2 3574 1 3578
4 2 2 -32 55 -76 116 -44 62 -83 116 -86 120 -2 5 32 -16 78 -47 109 -73 360
-192 341 -161 -3 5 -33 46 -68 92 -57 76 -171 251 -182 282 -4 10 12 12 69 11
l74 -2 -52 62 c-29 34 -72 94 -95 133 -45 78 -135 280 -127 287 2 3 24 -2 48
-10 89 -29 400 -118 403 -115 4 4 -16 48 -144 314 -72 148 -88 191 -93 245
-14 129 -44 280 -73 363 -15 43 -25 46 111 -33 194 -113 219 -124 165 -70 -22
22 -89 113 -147 200 -72 108 -223 363 -218 368 3 3 285 -141 362 -184 23 -13
44 -24 46 -24 18 0 -110 213 -186 310 -63 81 -92 112 -191 210 -78 78 -78 78
-45 75 19 -2 75 -6 124 -9 50 -3 128 -9 175 -12 97 -7 91 -7 108 -5 18 1 -49
128 -114 216 -90 120 -159 184 -291 273 -34 23 -66 50 -71 59 -5 9 -45 51 -88
95 -59 59 -74 78 -59 79 11 0 29 2 40 4 11 2 40 7 65 10 25 3 70 10 100 15 69
12 88 15 233 36 l117 17 -187 67 c-271 97 -700 273 -725 298 -4 4 157 7 357 7
201 0 365 2 365 5 -1 6 -66 47 -165 105 -98 57 -222 117 -361 174 -70 29 -113
52 -104 55 8 3 89 30 180 59 455 148 641 210 638 212 -2 2 -41 6 -88 9 -47 4
-114 9 -150 11 -36 3 -96 7 -135 10 -38 3 -92 7 -120 10 -27 2 -86 7 -130 10
-76 5 -117 9 -237 20 -29 3 -80 7 -113 10 -33 3 -80 7 -105 10 -25 2 -74 7
-110 10 -36 3 -81 8 -100 10 -19 2 -82 9 -140 15 -58 6 -121 13 -140 15 -19 2
-48 5 -65 5 -40 1 -15 15 45 26 25 4 47 8 50 9 37 8 31 6 605 120 270 54 503
99 519 102 75 12 68 20 -40 41 -184 37 -257 51 -304 56 -25 3 -55 8 -67 10
-12 3 -50 7 -85 11 -35 3 -74 8 -88 10 -45 7 -156 16 -350 30 -19 2 -42 4 -50
4 -8 1 35 26 95 55 61 29 175 85 255 123 409 198 500 243 500 245 0 6 -198 11
-400 11 -181 1 -418 -8 -505 -18 -16 -2 -52 -6 -80 -9 -184 -21 -208 -24 -330
-46 -174 -30 -211 -38 -360 -76 -221 -55 -430 -124 -641 -211 -17 -6 -56 127
-43 144 11 12 179 130 214 149 11 6 43 25 72 42 256 152 680 305 1100 396 171
37 167 37 358 66 174 27 180 28 255 36 36 4 72 8 80 10 8 1 30 3 49 3 76 2 11
12 -164 27 -288 23 -827 23 -965 0 -14 -3 -52 -7 -85 -10 -33 -4 -71 -8 -85
-10 -14 -2 -47 -7 -75 -11 -69 -9 -366 -75 -385 -85 -8 -4 -17 -8 -20 -8 -3 0
-30 -7 -61 -16 -116 -34 -300 -113 -404 -174 l-50 -29 -46 91 c-68 135 -185
325 -200 326 -3 0 -13 -19 -24 -42 -10 -24 -29 -68 -42 -98 -37 -84 -99 -248
-118 -315 l-17 -60 -17 25 c-70 106 -246 299 -361 395 -41 35 -142 105 -151
105 -4 0 -16 -26 -27 -57z"/>
</g>
</svg>
