<svg width="100%" height="100%" viewBox="0 0 100 50" xmlns="http://www.w3.org/2000/svg">
  <defs>
    <linearGradient id="red" x1="0%" y1="0%" x2="100%" y2="0%">
      <stop offset="0%" style="stop-color:#FFD700;stop-opacity:1" />
      <stop offset="100%" style="stop-color:#FFD700;stop-opacity:1" />
    </linearGradient>
    <linearGradient id="orange" x1="0%" y1="0%" x2="100%" y2="0%">
      <stop offset="0%" style="stop-color:#FF69B4;stop-opacity:1" />
      <stop offset="100%" style="stop-color:#FF69B4;stop-opacity:1" />
    </linearGradient>
    <linearGradient id="yellow" x1="0%" y1="0%" x2="100%" y2="0%">
      <stop offset="0%" style="stop-color:#BA55D3;stop-opacity:1" />
      <stop offset="100%" style="stop-color:#BA55D3;stop-opacity:1" />
    </linearGradient>
    <linearGradient id="green" x1="0%" y1="0%" x2="100%" y2="0%">
      <stop offset="0%" style="stop-color:#8A2BE2;stop-opacity:1" />
      <stop offset="100%" style="stop-color:#8A2BE2;stop-opacity:1" />
    </linearGradient>
    <linearGradient id="blue" x1="0%" y1="0%" x2="100%" y2="0%">
      <stop offset="0%" style="stop-color:#4B0082;stop-opacity:1" />
      <stop offset="100%" style="stop-color:#4B0082;stop-opacity:1" />
    </linearGradient>
    <linearGradient id="indigo" x1="0%" y1="0%" x2="100%" y2="0%">
      <stop offset="0%" style="stop-color:#FFC0CB;stop-opacity:1" />
      <stop offset="100%" style="stop-color:#FFC0CB;stop-opacity:1" />
    </linearGradient>
  </defs>
  <path d="M 10,50 A 40,40 0 0,1 90,50" fill="none" stroke="url(#red)" stroke-width="10" />
  <path d="M 15,50 A 35,35 0 0,1 85,50" fill="none" stroke="url(#orange)" stroke-width="10" />
  <path d="M 20,50 A 30,30 0 0,1 80,50" fill="none" stroke="url(#yellow)" stroke-width="10" />
  <path d="M 25,50 A 25,25 0 0,1 75,50" fill="none" stroke="url(#green)" stroke-width="10" />
  <path d="M 30,50 A 20,20 0 0,1 70,50" fill="none" stroke="url(#blue)" stroke-width="10" />
  <path d="M 35,50 A 15,15 0 0,1 65,50" fill="none" stroke="url(#indigo)" stroke-width="10" />
</svg>